<?xml version="1.0" standalone="no"?><!DOCTYPE svg PUBLIC "-//W3C//DTD SVG 1.1//EN" "http://www.w3.org/Graphics/SVG/1.1/DTD/svg11.dtd"><svg t="1528184181089" class="icon" style="" viewBox="0 0 1025 1024" version="1.1" xmlns="http://www.w3.org/2000/svg" p-id="3585" xmlns:xlink="http://www.w3.org/1999/xlink" width="200.1953125" height="200"><defs><style type="text/css"></style></defs><path d="M211.451008 532.32448 509.990336 532.32448 509.990336 658.368 552.443008 658.368 552.443008 532.31936 807.169408 532.31936C878.11072 532.31936 892.079872 574.52288 892.079872 658.368L933.177408 658.368 933.177408 573.45792C938.679552 532.06464 909.579584 494.04416 868.18656 488.54208 861.563648 487.6608 854.849088 487.66592 848.226176 488.5472L552.40224 488.5472 552.40224 403.64224 509.949568 403.64224 509.949568 488.55232 185.978368 489.06176C129.103104 491.91488 84.673728 539.23776 85.40224 596.17408L85.40224 658.368 126.540544 658.368C126.540544 593.49952 122.296768 532.36544 211.451008 532.32448L211.451008 532.32448ZM390.014208 318.73152 670.890816 318.73152C699.960192 317.13152 722.284352 292.36224 720.85792 263.28256L720.85792 119.44896C722.279296 90.36928 699.955072 65.6 670.890816 64L390.014208 64C360.970304 65.61984 338.681728 90.38976 340.128576 119.44896L340.128576 263.28768C338.681728 292.34176 360.965248 317.11168 390.014208 318.73152L390.014208 318.73152ZM217.263872 723.2 38.405248 723.2C13.605056 728.1312-3.033664 751.56608 0.491712 776.60608L0.491712 924.5152C-3.013312 949.55008 13.615232 972.9696 38.405248 977.92128L217.263872 977.92128C242.058944 972.9696 258.697664 949.5552 255.218112 924.5152L255.218112 776.60608C258.723136 751.56096 242.06912 728.1312 217.263872 723.2L217.263872 723.2ZM601.314624 723.2 422.410112 723.2C397.594688 728.11136 380.950848 751.56096 384.49664 776.60608L384.49664 924.5152C380.991616 949.55008 397.62016 972.9696 422.410112 977.92128L601.314624 977.92128C626.104576 972.9696 642.728064 949.55008 639.228096 924.5152L639.228096 776.60608C642.748416 751.56608 626.114816 728.1312 601.314624 723.2L601.314624 723.2ZM1023.218112 776.60608C1026.743552 751.55584 1010.084416 728.11136 985.263872 723.2L806.405248 723.2C781.605056 728.1312 764.966336 751.56608 768.491712 776.60608L768.491712 924.5152C764.986688 949.55008 781.615232 972.9696 806.405248 977.92128L985.263872 977.92128C1010.06912 972.99008 1026.71808 949.56032 1023.218112 924.5152L1023.218112 776.60608 1023.218112 776.60608ZM959.785728 813.93792C961.55072 801.39648 953.210368 789.65888 940.783936 787.2L851.238144 787.2C838.821952 789.66912 830.491712 801.4016 832.256768 813.93792L832.256768 887.98848C830.501952 900.52224 838.827008 912.24704 851.238144 914.7264L940.783936 914.7264C953.202688 912.25728 961.537984 900.52736 959.785728 887.98848L959.785728 813.93792 959.785728 813.93792ZM575.785728 813.93792C577.55072 801.39648 569.210368 789.65888 556.783936 787.2L467.238144 787.2C454.821952 789.66912 446.491712 801.4016 448.256768 813.93792L448.256768 887.98848C446.501952 900.52224 454.827008 912.24704 467.238144 914.7264L556.783936 914.7264C569.202688 912.25728 577.537984 900.52736 575.785728 887.98848L575.785728 813.93792 575.785728 813.93792ZM191.785728 813.93792C193.55072 801.39648 185.210368 789.65888 172.783936 787.2L83.238144 787.2C70.821952 789.66912 62.491712 801.4016 64.256768 813.93792L64.256768 887.98848C62.501952 900.52224 70.827008 912.24704 83.238144 914.7264L172.783936 914.7264C185.202688 912.25728 193.537984 900.52736 191.785728 887.98848L191.785728 813.93792 191.785728 813.93792Z" fill="#ffffff" p-id="3586"></path></svg>