<?xml version="1.0" standalone="no"?><!DOCTYPE svg PUBLIC "-//W3C//DTD SVG 1.1//EN" "http://www.w3.org/Graphics/SVG/1.1/DTD/svg11.dtd"><svg t="1528184937682" class="icon" style="" viewBox="0 0 1024 1024" version="1.1" xmlns="http://www.w3.org/2000/svg" p-id="5889" xmlns:xlink="http://www.w3.org/1999/xlink" width="200" height="200"><defs><style type="text/css"></style></defs><path d="M954.181818 795.927273c-55.854545-162.909091-172.218182-286.254545-314.181818-332.8 76.8-41.890909 128-123.345455 128-216.436364C768 111.709091 656.290909 0 518.981818 0c-137.309091 0-249.018182 111.709091-249.018182 249.018182 0 90.763636 48.872727 169.890909 121.018182 211.781818C246.690909 505.018182 125.672727 628.363636 69.818182 795.927273c-16.290909 51.2-9.309091 114.036364 23.272727 158.254545 30.254545 41.890909 76.8 69.818182 128 69.818182l390.981818 0c13.963636 0 27.927273-16.290909 27.927273-30.254545 0-13.963636-11.636364-30.254545-27.927273-30.254545L221.090909 963.490909c-32.581818 0-65.163636-16.290909-83.781818-44.218182-20.945455-30.254545-27.927273-69.818182-16.290909-104.727273 62.836364-190.836364 221.090909-318.836364 390.981818-318.836364S840.145455 623.709091 902.981818 814.545455c11.636364 34.909091 6.981818 74.472727-16.290909 104.727273-20.945455 27.927273-51.2 44.218182-83.781818 44.218182-13.963636 0-27.927273 11.636364-27.927273 27.927273 0 13.963636 11.636364 27.927273 27.927273 27.927273 51.2 0 97.745455-23.272727 128-65.163636C963.490909 905.309091 972.8 847.127273 954.181818 795.927273zM323.490909 249.018182c0-107.054545 88.436364-193.163636 195.490909-193.163636s195.490909 86.109091 195.490909 193.163636S626.036364 442.181818 518.981818 442.181818 323.490909 356.072727 323.490909 249.018182z" p-id="5890" fill="#ffffff"></path></svg>