<?xml version="1.0" standalone="no"?><!DOCTYPE svg PUBLIC "-//W3C//DTD SVG 1.1//EN" "http://www.w3.org/Graphics/SVG/1.1/DTD/svg11.dtd"><svg t="1528184894640" class="icon" style="" viewBox="0 0 1024 1024" version="1.1" xmlns="http://www.w3.org/2000/svg" p-id="5181" data-spm-anchor-id="a313x.7781069.0.i12" xmlns:xlink="http://www.w3.org/1999/xlink" width="200" height="200"><defs><style type="text/css"></style></defs><path d="M766.438946 943.5579c-4.429893 0-7.181563-0.145309-7.476275-0.160659l-0.290619-0.01842c-42.736337-3.02387-90.967828-17.787108-139.483798-42.693358l-0.587378-0.315178-54.078663-30.248931c-102.549607-56.177464-259.853259-218.356147-266.500657-225.233787l-11.432377-11.828396 0.092098-0.11461c-27.666106-29.688159-84.594677-94.66094-133.902686-175.60753-55.477522-91.075275-81.612763-169.619142-77.67815-233.44889 2.922563-47.425126 22.463618-85.97307 58.07979-114.573455 38.268582-30.728862 73.250304-43.540655 106.933451-39.162952 36.108383 4.690836 69.019956 28.681226 103.573937 75.497485 2.307555 3.127224 4.591575 6.207375 6.842849 9.244548 25.679869 34.643008 47.857984 64.562435 55.935963 95.558379 9.42772 36.173874-1.87572 69.727061-34.558074 102.576213l-1.133823 1.139963-0.239454 0.143263c-1.543146 1.576915-8.922207 10.053983-9.100262 28.119431-0.180102 18.291598 6.823406 40.11565 20.814048 64.866357 19.22076 34.000372 51.161217 72.403007 94.934163 114.14162 73.369008 69.476351 120.596635 88.594781 147.289578 92.391247 23.400966 3.329838 33.67803-4.653997 35.45756-6.243191l0.306992-0.428765-0.25071 0.378623c0.052189-0.048095 0.096191-0.088004 0.12996-0.12075 27.874861-32.115442 63.648622-42.73122 106.3297-31.54853 30.785144 8.064676 64.736397 26.939559 110.083188 61.199851 34.673707 26.194592 55.872518 52.227502 64.805982 79.588663 9.91379 30.357402 5.175883 61.742203-14.482853 95.946212-5.145184 8.953929-16.573467 12.040221-25.526373 6.892991-8.951883-5.145184-12.039197-16.573467-6.892991-25.526373 14.275121-24.837688 17.885346-45.717228 11.357675-65.705468-6.482645-19.854187-23.427572-39.926338-51.800783-61.36051-53.480029-40.404222-80.984453-50.661843-97.019661-54.862515-29.009707-7.600095-50.218752-1.410116-68.768223 20.064988-2.236947 2.578732-16.8559 18.027585-47.285956 19.762089-50.306756 2.858094-114.064872-31.898501-189.489702-103.322204C364.582509 505.738389 321.769424 435.174264 324.130192 378.769626c1.333368-31.846312 17.013489-48.312332 21.691021-52.538587 46.799886-47.340191 27.248597-78.138638-25.329898-149.069107-2.266623-3.057639-4.564969-6.15928-6.887874-9.30697-28.097942-38.068014-52.979632-57.33073-78.30646-60.621682-23.048949-2.994194-48.796356 7.223518-78.70248 31.237445-27.442002 22.037922-41.891086 50.730405-44.171012 87.718831-3.406586 55.261605 21.591761 128.46586 72.290443 211.69647 55.645344 91.351568 121.350812 161.615864 140.164297 180.974771l2.491751 2.564405c20.531616 20.967544 164.28874 166.17981 255.178797 215.937051l0.149403 0.082888 53.862745 30.126134c43.889603 22.49227 86.947258 35.799344 124.561947 38.494733 1.385557 0.062422 16.679891 0.665149 33.288151-2.122337 5.990434-1.004887 12.458753-2.228761 19.305695-3.52222 25.75764-4.867868 57.81373-10.927887 100.929714-12.644995 10.296507-0.403183 19.015076 7.619538 19.425422 17.936511 0.411369 10.316973-7.618515 19.015076-17.936511 19.425422-40.364313 1.608637-70.922283 7.385201-95.474468 12.025894-7.04137 1.330298-13.690814 2.586918-20.058848 3.656273C786.892791 943.120948 774.135232 943.5579 766.438946 943.5579z" p-id="5182" fill="#ffffff"></path></svg>